<svg id="visual" viewBox="0 0 900 600" width="900" height="600" xmlns="http://www.w3.org/2000/svg" xmlns:xlink="http://www.w3.org/1999/xlink" version="1.1"><g stroke-width="1" stroke-linejoin="bevel"><path d="M531 309L618 322L602 187Z" fill="#00284d" stroke="#00284d"></path><path d="M618 322L668 270L602 187Z" fill="#224095" stroke="#224095"></path><path d="M668 270L670 234L602 187Z" fill="#001829" stroke="#001829"></path><path d="M602 187L474 163L531 309Z" fill="#033571" stroke="#033571"></path><path d="M373 327L503 416L531 309Z" fill="#2e43a0" stroke="#2e43a0"></path><path d="M531 309L503 416L618 322Z" fill="#001829" stroke="#001829"></path><path d="M708 88L572 79L602 187Z" fill="#0b397d" stroke="#0b397d"></path><path d="M602 187L572 79L474 163Z" fill="#001d35" stroke="#001d35"></path><path d="M474 163L402 226L531 309Z" fill="#163d89" stroke="#163d89"></path><path d="M503 416L633 439L618 322Z" fill="#0b397d" stroke="#0b397d"></path><path d="M618 322L721 433L668 270Z" fill="#002341" stroke="#002341"></path><path d="M572 79L523 67L474 163Z" fill="#001829" stroke="#001829"></path><path d="M474 163L384 135L402 226Z" fill="#00284d" stroke="#00284d"></path><path d="M802 210L708 88L670 234Z" fill="#224095" stroke="#224095"></path><path d="M670 234L708 88L602 187Z" fill="#2e43a0" stroke="#2e43a0"></path><path d="M572 79L520 0L523 67Z" fill="#002341" stroke="#002341"></path><path d="M802 210L670 234L668 270Z" fill="#00284d" stroke="#00284d"></path><path d="M503 416L572 478L633 439Z" fill="#003165" stroke="#003165"></path><path d="M402 226L373 327L531 309Z" fill="#2e43a0" stroke="#2e43a0"></path><path d="M503 416L463 513L572 478Z" fill="#001829" stroke="#001829"></path><path d="M694 500L721 433L633 439Z" fill="#033571" stroke="#033571"></path><path d="M633 439L721 433L618 322Z" fill="#001829" stroke="#001829"></path><path d="M805 333L802 210L668 270Z" fill="#033571" stroke="#033571"></path><path d="M523 67L384 135L474 163Z" fill="#224095" stroke="#224095"></path><path d="M330 198L336 336L373 327Z" fill="#163d89" stroke="#163d89"></path><path d="M721 433L805 333L668 270Z" fill="#002341" stroke="#002341"></path><path d="M330 198L373 327L402 226Z" fill="#0b397d" stroke="#0b397d"></path><path d="M373 327L363 423L503 416Z" fill="#2e43a0" stroke="#2e43a0"></path><path d="M384 135L330 198L402 226Z" fill="#003165" stroke="#003165"></path><path d="M708 88L636 0L572 79Z" fill="#2e43a0" stroke="#2e43a0"></path><path d="M523 67L423 0L384 135Z" fill="#002c59" stroke="#002c59"></path><path d="M636 0L520 0L572 79Z" fill="#002c59" stroke="#002c59"></path><path d="M572 478L694 500L633 439Z" fill="#0b397d" stroke="#0b397d"></path><path d="M721 433L814 403L805 333Z" fill="#2e43a0" stroke="#2e43a0"></path><path d="M774 532L814 403L721 433Z" fill="#224095" stroke="#224095"></path><path d="M900 225L825 94L802 210Z" fill="#001829" stroke="#001829"></path><path d="M336 336L363 423L373 327Z" fill="#002c59" stroke="#002c59"></path><path d="M382 495L463 513L503 416Z" fill="#0b397d" stroke="#0b397d"></path><path d="M572 478L578 600L694 500Z" fill="#2e43a0" stroke="#2e43a0"></path><path d="M708 88L702 0L636 0Z" fill="#0b397d" stroke="#0b397d"></path><path d="M761 0L702 0L708 88Z" fill="#002c59" stroke="#002c59"></path><path d="M900 225L802 210L900 313Z" fill="#003165" stroke="#003165"></path><path d="M802 210L825 94L708 88Z" fill="#002c59" stroke="#002c59"></path><path d="M520 0L423 0L523 67Z" fill="#033571" stroke="#033571"></path><path d="M384 135L271 68L330 198Z" fill="#0b397d" stroke="#0b397d"></path><path d="M363 423L382 495L503 416Z" fill="#00284d" stroke="#00284d"></path><path d="M309 471L382 495L363 423Z" fill="#2e43a0" stroke="#2e43a0"></path><path d="M825 94L761 0L708 88Z" fill="#002c59" stroke="#002c59"></path><path d="M900 313L802 210L805 333Z" fill="#224095" stroke="#224095"></path><path d="M900 407L900 313L805 333Z" fill="#2e43a0" stroke="#2e43a0"></path><path d="M214 299L292 403L336 336Z" fill="#2e43a0" stroke="#2e43a0"></path><path d="M336 336L292 403L363 423Z" fill="#00284d" stroke="#00284d"></path><path d="M694 500L774 532L721 433Z" fill="#002341" stroke="#002341"></path><path d="M814 403L900 407L805 333Z" fill="#0b397d" stroke="#0b397d"></path><path d="M684 600L774 532L694 500Z" fill="#003165" stroke="#003165"></path><path d="M470 600L578 600L463 513Z" fill="#0b397d" stroke="#0b397d"></path><path d="M463 513L578 600L572 478Z" fill="#001d35" stroke="#001d35"></path><path d="M292 403L309 471L363 423Z" fill="#00284d" stroke="#00284d"></path><path d="M422 600L470 600L463 513Z" fill="#0b397d" stroke="#0b397d"></path><path d="M900 497L900 407L814 403Z" fill="#002c59" stroke="#002c59"></path><path d="M578 600L684 600L694 500Z" fill="#001d35" stroke="#001d35"></path><path d="M422 600L463 513L382 495Z" fill="#002341" stroke="#002341"></path><path d="M900 225L900 85L825 94Z" fill="#002c59" stroke="#002c59"></path><path d="M825 94L900 0L761 0Z" fill="#033571" stroke="#033571"></path><path d="M423 0L271 68L384 135Z" fill="#00284d" stroke="#00284d"></path><path d="M330 198L214 299L336 336Z" fill="#003165" stroke="#003165"></path><path d="M292 403L227 405L309 471Z" fill="#0b397d" stroke="#0b397d"></path><path d="M188 188L214 299L330 198Z" fill="#001829" stroke="#001829"></path><path d="M299 600L422 600L382 495Z" fill="#033571" stroke="#033571"></path><path d="M214 299L227 405L292 403Z" fill="#001d35" stroke="#001d35"></path><path d="M309 471L299 600L382 495Z" fill="#002341" stroke="#002341"></path><path d="M684 600L776 600L774 532Z" fill="#033571" stroke="#033571"></path><path d="M774 532L900 497L814 403Z" fill="#033571" stroke="#033571"></path><path d="M900 600L900 497L774 532Z" fill="#003165" stroke="#003165"></path><path d="M209 97L188 188L330 198Z" fill="#002c59" stroke="#002c59"></path><path d="M134 462L213 522L227 405Z" fill="#163d89" stroke="#163d89"></path><path d="M271 68L209 97L330 198Z" fill="#0b397d" stroke="#0b397d"></path><path d="M900 85L900 0L825 94Z" fill="#0b397d" stroke="#0b397d"></path><path d="M423 0L264 0L271 68Z" fill="#224095" stroke="#224095"></path><path d="M271 68L264 0L209 97Z" fill="#001829" stroke="#001829"></path><path d="M213 522L299 600L309 471Z" fill="#001829" stroke="#001829"></path><path d="M82 410L227 405L214 299Z" fill="#001829" stroke="#001829"></path><path d="M227 405L213 522L309 471Z" fill="#163d89" stroke="#163d89"></path><path d="M776 600L900 600L774 532Z" fill="#001829" stroke="#001829"></path><path d="M188 188L103 271L214 299Z" fill="#002341" stroke="#002341"></path><path d="M96 206L103 271L188 188Z" fill="#003165" stroke="#003165"></path><path d="M125 94L188 188L209 97Z" fill="#002c59" stroke="#002c59"></path><path d="M166 0L125 94L209 97Z" fill="#163d89" stroke="#163d89"></path><path d="M125 94L96 206L188 188Z" fill="#224095" stroke="#224095"></path><path d="M264 0L166 0L209 97Z" fill="#003165" stroke="#003165"></path><path d="M82 410L134 462L227 405Z" fill="#0b397d" stroke="#0b397d"></path><path d="M213 522L217 600L299 600Z" fill="#003165" stroke="#003165"></path><path d="M73 600L217 600L213 522Z" fill="#002341" stroke="#002341"></path><path d="M103 271L82 410L214 299Z" fill="#001829" stroke="#001829"></path><path d="M134 462L73 600L213 522Z" fill="#001829" stroke="#001829"></path><path d="M0 315L82 410L103 271Z" fill="#163d89" stroke="#163d89"></path><path d="M125 94L0 161L96 206Z" fill="#033571" stroke="#033571"></path><path d="M96 206L0 315L103 271Z" fill="#224095" stroke="#224095"></path><path d="M166 0L68 0L125 94Z" fill="#0b397d" stroke="#0b397d"></path><path d="M0 161L0 315L96 206Z" fill="#224095" stroke="#224095"></path><path d="M82 410L0 482L134 462Z" fill="#224095" stroke="#224095"></path><path d="M0 97L0 161L125 94Z" fill="#224095" stroke="#224095"></path><path d="M68 0L0 97L125 94Z" fill="#002341" stroke="#002341"></path><path d="M0 315L0 425L82 410Z" fill="#2e43a0" stroke="#2e43a0"></path><path d="M0 482L73 600L134 462Z" fill="#00284d" stroke="#00284d"></path><path d="M0 425L0 482L82 410Z" fill="#163d89" stroke="#163d89"></path><path d="M68 0L0 0L0 97Z" fill="#001829" stroke="#001829"></path><path d="M0 482L0 600L73 600Z" fill="#002c59" stroke="#002c59"></path></g></svg>